HIERARCHY
ROOT Hips
{
	OFFSET -3.958830 18.904000 13.208200
	CHANNELS 6 Xposition Yposition Zposition Zrotation Yrotation Xrotation 
	JOINT LHipJoint
	{
		OFFSET 0.000000 0.000000 0.000000
		CHANNELS 3 Zrotation Yrotation Xrotation
		JOINT LeftUpLeg
		{
			OFFSET 1.800000 -1.400000 0.085000
			CHANNELS 3 Zrotation Yrotation Xrotation
			JOINT LeftLeg
			{
				OFFSET 2.215000 -6.000000 0.000000
				CHANNELS 3 Zrotation Yrotation Xrotation
				JOINT LeftFoot
				{
					OFFSET 2.500000 -6.900000 0.000000
					CHANNELS 3 Zrotation Yrotation Xrotation
					JOINT LeftToeBase
					{
						OFFSET 0.200000 -0.500000 1.950000
						CHANNELS 3 Zrotation Yrotation Xrotation
						End Site
						{
							OFFSET 0.000000 0.000000 0.000000
						}
					}
				}
			}
		}
	}
	JOINT RHipJoint
	{
		OFFSET 0.000000 0.000000 0.000000
		CHANNELS 3 Zrotation Yrotation Xrotation
		JOINT RightUpLeg
		{
			OFFSET -1.800000 -1.400000 0.085000
			CHANNELS 3 Zrotation Yrotation Xrotation
			JOINT RightLeg
			{
				OFFSET -2.215000 -6.000000 0.000000
				CHANNELS 3 Zrotation Yrotation Xrotation
				JOINT RightFoot
				{
					OFFSET -2.500000 -6.900000 0.000000
					CHANNELS 3 Zrotation Yrotation Xrotation
					JOINT RightToeBase
					{
						OFFSET -0.200000 -0.500000 1.950000
						CHANNELS 3 Zrotation Yrotation Xrotation
						End Site
						{
							OFFSET 0.000000 0.000000 0.000000
						}
					}
				}
			}
		}
	}
	JOINT LowerBack
	{
		OFFSET 0.000000 0.000000 0.000000
		CHANNELS 3 Zrotation Yrotation Xrotation
		JOINT Spine
		{
			OFFSET -0.087000 1.940000 -0.288900
			CHANNELS 3 Zrotation Yrotation Xrotation
			JOINT Spine1
			{
				OFFSET 0.000000 1.950000 0.060000
				CHANNELS 3 Zrotation Yrotation Xrotation
				JOINT Neck
				{
					OFFSET 0.000000 0.000000 0.000000
					CHANNELS 3 Zrotation Yrotation Xrotation
					JOINT Neck1
					{
						OFFSET 0.000000 1.600000 0.340000
						CHANNELS 3 Zrotation Yrotation Xrotation
						JOINT Head
						{
							OFFSET 0.000000 1.667000 -0.240000
							CHANNELS 3 Zrotation Yrotation Xrotation
							End Site
							{
								OFFSET 0.000000 0.000000 0.000000
							}
						}
					}
				}
				JOINT LeftShoulder
				{
					OFFSET 0.000000 0.000000 0.000000
					CHANNELS 3 Zrotation Yrotation Xrotation
					JOINT LeftArm
					{
						OFFSET 2.700000 1.550000 -0.730000
						CHANNELS 3 Zrotation Yrotation Xrotation
						JOINT LeftForeArm
						{
							OFFSET 5.450000 0.000000 0.000000
							CHANNELS 3 Zrotation Yrotation Xrotation
							JOINT LeftHand
							{
								OFFSET 3.450000 0.000000 0.000000
								CHANNELS 3 Zrotation Yrotation Xrotation
								JOINT LeftHandIndex1
								{
									OFFSET 0.750000 0.000000 0.000000
									CHANNELS 3 Zrotation Yrotation Xrotation
									End Site
									{
										OFFSET 0.000000 0.000000 0.000000
									}
								}
							}
						}
					}
				}
				JOINT RightShoulder
				{
					OFFSET 0.000000 0.000000 0.000000
					CHANNELS 3 Zrotation Yrotation Xrotation
					JOINT RightArm
					{
						OFFSET -2.700000 1.550000 -0.730000
						CHANNELS 3 Zrotation Yrotation Xrotation
						JOINT RightForeArm
						{
							OFFSET -5.450000 0.000000 0.000000
							CHANNELS 3 Zrotation Yrotation Xrotation
							JOINT RightHand
							{
								OFFSET -3.450000 0.000000 0.000000
								CHANNELS 3 Zrotation Yrotation Xrotation
								JOINT RightHandIndex1
								{
									OFFSET -0.750000 0.000000 0.000000
									CHANNELS 3 Zrotation Yrotation Xrotation
									End Site
									{
										OFFSET 0.000000 0.000000 0.000000
									}
								}
							}
						}
					}
				}
			}
		}
	}
}
MOTION
Frames: 14
Frame Time: 0.016667
0.489000 17.095510 -10.084420 10.316277 -60.251728 -10.148389 -15.032019 12.165400 4.104583 13.089154 -1.462630 -33.932410 -10.805247 7.842965 20.830518 0.301101 4.037436 2.874421 0.938470 1.039700 0.478360 18.131646 -11.195728 3.295807 -22.473104 8.971984 -18.144805 18.079969 -9.919367 26.678795 -0.840592 -5.408466 2.272378 0.210580 -0.410680 0.173920 -5.844357 1.412499 -7.396048 45.084806 -15.941861 31.833514 -23.986889 -4.490271 5.423978 9.610063 -16.580824 -11.746230 -35.164916 22.716391 52.609763 -8.315080 -4.247750 -20.638420 -29.173481 -0.046167 1.360754 -51.934972 17.509690 -16.593026 -18.775044 -17.753181 -0.460160 -2.565338 3.304403 0.327160 -0.536900 0.578020 0.379330 8.972382 16.642940 7.638763 63.038675 34.974058 6.935638 -129.729004 54.828948 -115.008811 2.739334 -1.377872 0.546980 0.015330 -0.535520 0.293140 
0.479780 17.023420 -10.012170 7.753187 -58.797548 -8.191994 -14.905077 12.519471 3.637967 10.932321 -1.547066 -30.449414 -6.549700 5.242714 15.076891 0.102877 2.721431 3.414361 0.867200 0.944800 0.437400 18.181074 -11.438279 3.399159 -21.878461 8.644237 -18.018397 18.028838 -10.375982 27.751435 -0.831150 -5.617253 2.227351 0.188030 -0.328340 0.173780 -5.791528 1.268543 -7.183696 46.813397 -16.550740 29.453165 -23.785070 -5.396488 6.859626 9.846539 -16.727584 -12.103364 -33.979475 21.835988 50.665757 -8.914540 -2.930040 -18.289030 -27.296742 -0.705335 1.997778 -52.220248 16.519205 -15.670628 -17.978558 -16.312061 -0.654185 -2.701260 3.236532 0.314050 -0.462480 0.513930 0.371130 6.878283 17.614247 7.964204 61.847957 37.108927 6.141772 -122.612190 53.441980 -103.806201 2.693225 -1.124483 0.484130 0.038710 -0.488320 0.271640 
0.495770 16.978600 -9.986990 8.366149 -58.095052 -9.981540 -14.869146 12.795427 3.328938 8.434997 -1.618470 -26.914858 -3.269447 3.832192 11.767886 -0.020057 2.028108 3.724975 0.877740 0.966770 0.446080 18.164457 -11.643691 3.436286 -22.466889 8.324044 -17.757587 17.422250 -10.831406 29.908739 -0.861046 -5.931836 2.120017 0.235480 -0.295740 0.151170 -5.799289 1.251971 -7.046219 45.484559 -16.881218 30.296072 -21.848355 -6.222676 9.073807 9.253937 -16.900550 -12.564564 -33.829172 21.222187 47.950270 -7.920530 -2.479470 -18.411790 -24.683960 -3.105216 3.159123 -51.865902 14.114131 -14.278784 -19.421017 -12.869846 -1.100675 -2.793896 3.181861 0.307830 -0.433080 0.489640 0.381200 6.119070 20.062637 7.872991 56.743832 39.667936 3.348530 -116.228820 50.821254 -92.637247 2.593274 -0.973861 0.441500 0.075720 -0.496860 0.258650 
0.517260 16.932560 -9.982070 9.758239 -57.933446 -12.623269 -14.887319 12.967718 3.176511 6.759665 -1.571590 -24.091670 -1.510606 3.251097 10.143700 -0.076959 1.809119 3.845795 0.895840 0.994680 0.455700 18.121295 -11.738526 3.448559 -23.351071 8.104987 -17.439097 17.046781 -11.212405 31.752726 -0.892227 -6.237513 2.013236 0.276390 -0.252210 0.152760 -5.782395 1.208679 -7.007682 42.692604 -16.512529 32.616409 -18.828409 -6.568980 11.540468 8.497542 -17.205779 -12.975651 -33.304613 20.365189 44.936550 -6.179900 -2.163540 -18.939580 -21.020479 -5.438010 4.324353 -52.901660 10.833221 -12.925474 -17.123320 -11.790854 -1.175372 -2.913487 3.170455 0.288650 -0.395300 0.464120 0.386430 4.827644 22.840613 7.653447 49.434717 41.485492 -1.260475 -110.341345 47.792943 -82.361490 2.485112 -0.958038 0.422260 0.103140 -0.494160 0.253030 
0.550580 16.904140 -9.982140 10.330048 -59.026006 -14.220638 -14.929687 13.093789 3.087132 6.393595 -1.246342 -22.496662 -0.604125 3.116970 9.640925 -0.119411 1.830174 3.878100 0.872670 0.981310 0.441720 18.062198 -11.822643 3.428851 -23.121170 8.268060 -17.585656 15.812384 -11.014037 33.487739 -0.878563 -6.349970 1.995413 0.300200 -0.176930 0.146770 -5.784192 1.221996 -7.012359 40.118969 -15.551248 35.311043 -15.883588 -6.013687 14.265277 7.733399 -16.804804 -13.359598 -30.894288 18.680039 42.444255 -5.007100 -1.399760 -18.480640 -16.734717 -8.232674 5.998290 -53.803042 9.036791 -13.211594 -17.520078 -14.853339 -0.981480 -2.988645 3.191859 0.265380 -0.329530 0.421250 0.391270 2.938716 25.688338 7.079998 40.901974 41.605896 -7.870382 -104.030585 44.268358 -71.675089 2.412885 -1.058027 0.375580 0.149770 -0.473080 0.242580 
0.580110 16.887380 -9.987320 9.090860 -60.514575 -13.643621 -14.964240 13.232867 3.026458 7.292364 -0.714002 -22.658301 -0.125541 3.198767 10.078656 -0.144675 1.932881 3.829184 0.909280 1.023490 0.482280 18.025961 -11.787495 3.389766 -21.780232 8.576305 -17.678066 14.835744 -10.593908 34.391328 -0.885063 -6.333953 2.001869 0.340300 -0.165230 0.189720 -5.618315 0.884178 -7.067441 37.654520 -14.117596 37.541714 -12.239836 -5.052506 17.086273 7.244112 -15.525108 -13.913904 -27.657356 16.796642 41.476376 -5.104880 -0.195760 -17.563220 -12.487148 -11.891775 7.852170 -54.779738 7.058518 -12.962721 -16.568839 -15.807937 -1.059931 -3.043660 3.258905 0.250880 -0.273620 0.424610 0.398430 0.409704 28.585779 6.274025 32.526797 39.533600 -14.953252 -96.565608 40.998335 -60.927804 2.416485 -1.298536 0.377700 0.125210 -0.491360 0.222020 
0.630220 16.896190 -9.993500 6.024686 -62.693509 -11.421679 -15.003391 13.226006 2.971638 9.864766 0.198936 -23.310174 -1.042165 3.692348 10.836354 -0.134653 2.225002 3.708477 0.918070 1.062110 0.505290 17.995739 -11.820515 3.342312 -19.325889 9.031101 -17.517957 13.625735 -9.769028 34.428886 -0.853540 -6.139937 2.090557 0.383200 -0.127850 0.208980 -5.591692 0.933487 -7.110566 37.167751 -13.228607 39.833728 -10.220812 -3.920199 20.042105 6.845519 -14.360067 -13.906983 -24.045433 14.775717 38.780969 -5.820710 0.840190 -17.235300 -7.239328 -13.690067 9.148997 -53.739329 5.990543 -13.469310 -18.473394 -19.889102 -0.732976 -3.063214 3.353959 0.197950 -0.201460 0.411030 0.406070 -3.498194 29.712216 4.961018 26.342463 38.259738 -20.196204 -87.717554 36.156202 -49.532361 2.492527 -1.604789 0.369320 0.137870 -0.500140 0.216930 
0.685730 16.899900 -10.001170 3.147768 -64.922442 -9.275631 -15.054936 13.240986 2.995137 12.606493 1.168241 -24.313391 -2.519326 4.501803 12.298517 -0.169031 2.758396 3.499683 0.880830 0.999670 0.516790 17.980518 -11.679384 3.276697 -17.341610 9.527263 -17.237439 12.868229 -9.091376 34.237756 -0.801272 -5.979734 2.152134 0.398100 -0.073330 0.218000 -5.382949 0.589579 -7.208152 35.395509 -11.628586 42.944187 -7.003647 -2.597315 21.938844 5.821670 -12.814719 -13.801507 -20.526649 13.082149 36.508402 -5.657820 1.975790 -16.308430 -2.705590 -15.393435 10.695387 -51.108143 6.946579 -14.990502 -24.846499 -24.972729 -0.011250 -3.061916 3.456315 0.197650 -0.125630 0.355250 0.370830 -5.922565 30.391385 2.961896 19.344197 35.626058 -22.814120 -78.473787 31.169033 -38.737397 2.549793 -1.828554 0.301850 0.150190 -0.458050 0.163510 
0.747270 16.898860 -9.995650 -0.527706 -66.755317 -6.630107 -15.095720 13.141075 2.964767 14.924194 2.157632 -24.908656 -2.931258 5.099473 13.590188 -0.223684 3.196092 3.318057 0.843320 0.951060 0.523360 17.983105 -11.649453 3.256115 -15.775464 10.010455 -16.748092 12.696364 -8.667921 33.967726 -0.752616 -5.947913 2.154444 0.432260 -0.031550 0.214820 -5.374045 0.712062 -7.269755 35.227660 -10.710666 45.481632 -6.326014 -1.265910 24.088990 5.251010 -10.668875 -13.495969 -15.940206 11.266814 33.864926 -5.646340 3.044330 -14.865510 1.275908 -16.479040 11.797129 -43.721424 9.662974 -15.925568 -36.165706 -29.657547 2.008672 -3.048949 3.580762 0.174490 -0.043290 0.282610 0.323500 -8.849299 29.698600 1.497948 14.707437 33.775132 -23.612990 -69.484383 23.389092 -28.883788 2.609777 -2.087525 0.232640 0.140530 -0.418710 0.106460 
0.805790 16.910680 -9.957880 -6.218127 -68.368706 -2.233893 -15.094358 13.096329 2.940711 17.171398 3.360053 -25.186075 -2.907765 5.652893 14.787525 -0.240691 3.616894 3.127891 0.822630 0.914280 0.561530 18.027422 -11.582155 3.220478 -14.098792 10.396971 -15.347134 13.043609 -8.290943 32.874768 -0.735998 -5.851873 2.178699 0.443340 -0.036640 0.225490 -5.224653 0.638566 -7.346643 35.817216 -10.352885 48.143234 -6.791884 0.164353 25.831892 5.793830 -8.666677 -13.868045 -12.225673 9.300190 32.329899 -6.253370 3.691970 -14.461340 4.219338 -16.553630 12.047794 -36.231661 12.556494 -15.874053 -45.440063 -29.381658 2.896785 -3.039253 3.593469 0.180960 -0.002910 0.264340 0.274110 -13.068778 28.188121 1.555158 11.917735 31.568519 -22.875276 -60.625280 14.907946 -20.723362 2.706060 -2.293625 0.196180 0.124100 -0.393170 0.052510 
0.858820 16.914180 -9.915000 -10.158221 -69.528942 0.569442 -15.116563 13.354183 2.937748 18.102518 4.256614 -25.313976 -2.203540 5.892176 15.599615 -0.220965 3.824500 3.023260 0.801670 0.900330 0.590000 18.017657 -11.332679 3.162801 -13.855896 10.257639 -13.583202 14.265847 -8.135164 30.704773 -0.736078 -5.712488 2.234487 0.425580 -0.060130 0.240450 -4.716427 -0.248590 -7.389388 33.228899 -8.816128 51.931846 -5.096643 1.414194 26.229409 6.218338 -7.088254 -14.216851 -9.535304 7.931965 31.339292 -7.520310 4.898460 -15.145500 6.994322 -15.091609 11.871383 -31.808817 15.128765 -16.014047 -52.631248 -29.110913 3.592190 -2.957709 3.608451 0.202270 0.011140 0.295550 0.249170 -17.264098 26.044734 1.771800 9.174742 29.416033 -19.081837 -49.709621 7.926212 -13.619307 2.827349 -2.336836 0.190760 0.113920 -0.387000 0.023610 
0.889720 16.909780 -9.845410 -13.637946 -70.115119 3.729748 -15.152542 13.516495 2.960864 18.626059 4.788939 -25.942356 -1.586519 6.017734 16.136659 -0.160391 3.912948 2.983626 0.779910 0.882050 0.591580 18.005842 -11.046342 3.152856 -14.250286 10.268664 -12.666333 16.057494 -8.200119 28.791179 -0.741028 -5.642266 2.285362 0.391810 -0.080530 0.216370 -4.319334 -1.020018 -7.466994 31.155816 -7.282010 54.165500 -3.282344 2.693081 25.998515 6.031054 -6.186403 -14.826329 -8.379699 6.431008 31.314969 -7.203440 5.112130 -15.119560 9.193044 -13.317845 11.427990 -28.331703 15.995409 -15.347676 -57.753960 -29.137637 4.633837 -2.826397 3.635118 0.216670 -0.008550 0.313570 0.251420 -19.797073 24.082583 3.186396 6.937767 26.207985 -14.043076 -39.094224 4.267071 -8.610881 2.958609 -2.232239 0.188910 0.109850 -0.406940 0.019940 
0.903110 16.897250 -9.758910 -16.712291 -70.800770 7.172721 -15.180525 13.607715 3.027450 18.968938 5.063703 -26.561919 -1.276447 6.044043 16.033777 -0.091076 3.881131 2.976332 0.718050 0.822420 0.528940 17.989467 -10.843962 3.150281 -14.594114 10.185988 -12.307777 17.081684 -8.020896 26.863538 -0.729951 -5.418008 2.397970 0.304390 -0.116290 0.167500 -4.089663 -1.562283 -7.553710 29.565914 -6.105349 55.096942 -2.126356 3.917263 25.301266 5.435760 -6.305610 -15.902595 -9.668710 5.065423 33.600080 -5.376700 4.073910 -16.084980 10.535501 -12.379082 11.564169 -24.941006 17.124924 -14.460868 -62.445265 -29.343912 5.921618 -2.647964 3.636345 0.279690 -0.089720 0.344660 0.240710 -20.457760 23.333884 5.057858 4.242659 22.809496 -8.821736 -28.744346 2.675005 -4.773321 3.038663 -1.909732 0.194050 0.117250 -0.388440 0.032310 
0.907810 16.889620 -9.659610 -17.070301 -71.241926 7.208294 -15.135968 13.618333 2.914633 18.485540 4.862377 -25.994296 -0.830731 5.895120 16.402274 -0.058109 3.779057 3.042154 0.697250 0.797260 0.495030 18.000420 -10.969733 3.188605 -15.835605 9.793684 -11.592929 17.843738 -7.977993 25.420830 -0.719907 -5.408043 2.418752 0.276530 -0.082880 0.138650 -4.231594 -1.350004 -7.468526 29.725444 -5.912091 55.544377 -2.754595 4.541003 25.680679 4.500524 -6.538299 -16.383226 -10.655893 4.318742 33.038110 -2.577820 2.980060 -15.728580 11.503104 -11.482216 11.235190 -19.061257 16.980274 -12.670433 -68.322282 -31.621588 9.131627 -2.586805 3.699709 0.271780 -0.107460 0.324300 0.253820 -19.814036 22.284191 7.154371 2.510433 19.384854 -5.040580 -21.360941 4.029149 -2.895742 2.977455 -1.678922 0.192000 0.141610 -0.385340 0.057120 
